<?xml version="1.0" standalone="no"?>
<!DOCTYPE svg PUBLIC "-//W3C//DTD SVG 20010904//EN"
 "http://www.w3.org/TR/2001/REC-SVG-20010904/DTD/svg10.dtd">
<svg version="1.0" xmlns="http://www.w3.org/2000/svg"
 width="443pt" height="193pt" viewBox="0 0 443 193"
 preserveAspectRatio="xMidYMid meet">
<metadata>
Created by potrace 1.8, written by Peter Selinger 2001-2007
</metadata>
<g transform="translate(0,193) scale(0.080000,-0.080000)"
fill="#00A0FF" stroke="none">
<path d="M1344 1896 c-264 -63 -463 -261 -525 -522 -58 -244 25 -510 212 -678
65 -58 128 -96 154 -92 11 2 52 46 97 107 43 57 95 123 115 146 36 41 41 43
106 48 38 3 77 10 87 15 9 5 19 7 22 5 2 -2 26 13 53 33 46 34 120 128 123
156 1 6 4 25 6 41 13 79 12 84 -23 112 -26 23 -33 36 -33 65 0 88 109 112 147
32 14 -31 14 -37 1 -66 -9 -18 -18 -62 -20 -98 -2 -36 -9 -79 -14 -95 -30 -96
-106 -185 -193 -227 -53 -26 -74 -32 -153 -43 -22 -3 -46 -11 -53 -17 -17 -14
-158 -199 -172 -227 -22 -41 57 -68 203 -69 324 -2 595 208 677 526 34 134 18
328 -38 452 -68 150 -268 346 -332 325 -10 -3 -63 -65 -117 -138 -103 -139
-120 -157 -144 -156 -8 1 -17 0 -20 -1 -3 -1 -27 -3 -53 -6 -145 -12 -257
-129 -278 -292 -4 -26 5 -45 31 -69 37 -34 44 -66 25 -103 -30 -59 -122 -53
-143 9 -9 26 2 91 16 91 4 0 8 28 8 63 2 77 7 99 38 164 23 47 107 143 126
143 5 0 15 6 22 13 18 17 112 46 172 52 27 2 53 8 56 12 4 5 46 60 94 124 55
74 84 122 80 132 -5 14 -29 25 -79 35 -52 10 -235 9 -281 -2z"/>
<path d="M3376 1615 c-8 -9 -13 -33 -11 -67 2 -73 -6 -87 -52 -83 -53 4 -73
-9 -67 -42 7 -35 4 -34 58 -35 25 0 50 -6 53 -12 9 -14 11 -173 3 -187 -4 -5
-28 -10 -53 -11 -50 -1 -59 -7 -61 -42 -2 -29 11 -36 67 -36 26 0 47 -3 48 -7
1 -5 2 -50 3 -101 2 -114 -11 -143 -76 -164 -38 -13 -43 -18 -43 -44 0 -28 2
-29 48 -27 90 3 148 69 147 168 0 17 0 37 0 45 0 17 6 111 9 123 0 4 21 7 45
7 45 0 59 10 61 42 2 26 -16 38 -57 36 -19 -1 -40 2 -46 6 -8 5 -11 156 -3
198 0 4 22 7 47 6 52 -1 65 11 55 50 -6 22 -13 26 -47 27 -21 0 -44 4 -50 8
-6 3 -11 35 -11 72 0 36 -2 68 -5 70 -13 13 -49 13 -62 0z"/>
<path d="M3693 1617 c-12 -20 -9 -58 6 -66 13 -6 170 -8 227 -2 15 1 24 45 13
62 -9 15 -237 20 -246 6z"/>
<path d="M4320 1590 c-41 -5 -45 -8 -48 -34 -2 -16 2 -32 8 -36 6 -4 115 -7
241 -6 243 1 253 3 241 48 -2 11 -11 22 -18 25 -18 7 -368 9 -424 3z"/>
<path d="M2469 1581 c-7 -47 -4 -60 15 -64 12 -3 122 -5 245 -5 166 0 225 -3
231 -12 12 -19 -18 -128 -63 -230 -42 -95 -127 -209 -141 -188 -81 118 -109
180 -152 336 -3 8 -16 12 -36 10 -27 -2 -33 -7 -34 -28 -1 -59 76 -240 139
-329 19 -25 32 -53 30 -61 -7 -29 -233 -179 -233 -154 0 4 -6 2 -13 -4 -7 -6
-25 -13 -40 -16 -58 -10 -67 -16 -67 -47 0 -40 19 -45 93 -25 89 25 174 69
252 132 38 30 72 54 75 54 4 0 19 -11 34 -25 68 -63 226 -153 298 -171 24 -5
29 -2 38 21 15 39 13 42 -25 55 -84 28 -285 154 -285 179 0 4 21 36 46 72 87
120 155 293 168 426 9 88 30 82 -290 81 -156 0 -284 -3 -285 -7z"/>
<path d="M3609 1468 c-19 -7 -19 -19 -17 -360 l3 -353 138 -3 c152 -3 201 6
247 45 66 55 69 69 70 382 0 220 -2 282 -12 286 -22 8 -408 11 -429 3z m357
-80 c7 -8 7 -198 0 -206 -6 -6 -285 -6 -291 0 -7 7 -8 195 -2 206 6 9 283 9
293 0z m4 -333 c3 -22 3 -68 0 -102 -7 -83 -33 -111 -113 -122 -36 -5 -60 -4
-67 3 -6 6 -10 6 -10 1 0 -10 -97 -11 -106 -2 -8 7 -7 245 1 257 4 7 53 10
148 8 l142 -3 5 -40z"/>
<path d="M4160 1276 c-14 -14 -12 -53 1 -62 7 -4 60 -7 118 -7 58 1 111 -3
118 -9 8 -7 5 -23 -15 -61 -15 -29 -30 -53 -34 -55 -5 -2 -8 -7 -8 -11 0 -4
-21 -45 -46 -92 -49 -90 -56 -134 -30 -174 35 -53 49 -56 263 -57 265 0 250
-2 269 26 15 24 14 29 -38 128 -56 107 -70 118 -107 83 -12 -12 -10 -23 17
-76 20 -40 28 -66 22 -74 -6 -7 -66 -10 -176 -10 -157 0 -167 1 -180 21 -14
21 -17 15 109 234 11 19 28 51 38 71 11 21 30 41 46 47 16 6 94 10 179 10 83
-1 156 2 162 6 20 12 15 66 -5 67 -107 6 -696 2 -703 -5z"/>
</g>
</svg>
