<svg id="8f4b1265-7c11-4b8b-a143-9034ce62f842" data-name="Layer 1" xmlns="http://www.w3.org/2000/svg" viewBox="0 0 220 80"><title>litecoin</title><g id="b7de0918-5105-4588-8c2b-5743579a1b78" data-name="Page-1"><g id="0ee6a203-e68d-4117-98cd-630da5395740" data-name="Imported-Layers"><path id="7bbb6620-210c-4f04-aac9-18fbed093548" data-name="Fill-1" d="M30.51,15a25,25,0,1,0,25,25A25,25,0,0,0,30.51,15ZM26.65,26.59h7.73L31.66,36.86l3.78-1.38,0,.09-1,3.59-3.84,1.4L29,46.68H41.9l-1.32,4.91H20l2.1-7.9-3,1.09,1-3.7,3-1.09Z" fill="#999"/></g></g><path d="M70.28,57.54H65.74v-36h4.54Z" fill="#999"/><path d="M82.18,26.21H77.63V21.58h4.54Zm0,31.33H77.63V32.6h4.54Z" fill="#999"/><path d="M95.16,26.58v6h4.73V36H95.16V51.11a3.39,3.39,0,0,0,.73,2.47,2.62,2.62,0,0,0,1.93.71,4.53,4.53,0,0,0,.86-.09,5.31,5.31,0,0,0,.84-.23l.6,3.11a4,4,0,0,1-1.49.68,7.53,7.53,0,0,1-2,.27,5.88,5.88,0,0,1-4.4-1.67q-1.64-1.67-1.64-5.25V36h-4V32.6h4v-6Z" fill="#999"/><path d="M115.84,58a10.52,10.52,0,0,1-8.29-3.47,13.06,13.06,0,0,1-3.08-9v-1a12.79,12.79,0,0,1,3.17-8.86,9.76,9.76,0,0,1,7.5-3.54q5,0,7.63,3a12.12,12.12,0,0,1,2.58,8.12v2.84H109.17l-.07.11a9.81,9.81,0,0,0,1.82,5.9,5.81,5.81,0,0,0,4.91,2.31,11.42,11.42,0,0,0,4-.66,9.3,9.3,0,0,0,3-1.81l1.78,3a10.55,10.55,0,0,1-3.53,2.2A14.21,14.21,0,0,1,115.84,58Zm-.69-22.32a4.93,4.93,0,0,0-3.9,1.92,9.07,9.07,0,0,0-2,4.81l0,.12h11.5V42a6.92,6.92,0,0,0-1.43-4.46A5.1,5.1,0,0,0,115.14,35.71Z" fill="#999"/><path d="M140.6,54.46a6.12,6.12,0,0,0,4-1.39,4.26,4.26,0,0,0,1.72-3.42h4.08l0,.14a7,7,0,0,1-2.87,5.74,10.47,10.47,0,0,1-7,2.51q-5.44,0-8.32-3.55a13.7,13.7,0,0,1-2.88-8.92v-1a13.64,13.64,0,0,1,2.89-8.89q2.89-3.56,8.31-3.56a10.1,10.1,0,0,1,7.16,2.58,8,8,0,0,1,2.69,6.34l0,.14h-4.1a5.27,5.27,0,0,0-1.61-3.88,5.55,5.55,0,0,0-4.08-1.6,5.47,5.47,0,0,0-5.11,2.57,12.08,12.08,0,0,0-1.53,6.3v1a12.23,12.23,0,0,0,1.52,6.37Q137,54.46,140.6,54.46Z" fill="#999"/><path d="M154.45,44.84a13.73,13.73,0,0,1,3-9.12,11.11,11.11,0,0,1,16.33,0,13.69,13.69,0,0,1,3,9.13v.51a13.67,13.67,0,0,1-3,9.13,11.16,11.16,0,0,1-16.33,0,13.64,13.64,0,0,1-3-9.12Zm4.54.5a11.8,11.8,0,0,0,1.67,6.54,6,6,0,0,0,9.9,0,11.74,11.74,0,0,0,1.68-6.54v-.51a11.71,11.71,0,0,0-1.69-6.52,5.56,5.56,0,0,0-5-2.6,5.48,5.48,0,0,0-4.92,2.6A11.83,11.83,0,0,0,159,44.83Z" fill="#999"/><path d="M187.26,26.21h-4.54V21.58h4.54Zm0,31.33h-4.54V32.6h4.54Z" fill="#999"/><path d="M198.3,32.6l.32,3.71a9.06,9.06,0,0,1,3.12-3.08,8.33,8.33,0,0,1,4.28-1.1,8.14,8.14,0,0,1,6.25,2.36q2.21,2.36,2.21,7.3V57.54h-4.54V41.89q0-3.3-1.3-4.68a5.22,5.22,0,0,0-4-1.38,6.4,6.4,0,0,0-3.47.95,6.9,6.9,0,0,0-2.41,2.58V57.54h-4.54V32.6Z" fill="#999"/></svg>